<?xml version="1.0" encoding="UTF-8" standalone="no"?>
<!-- Created with Inkscape (http://www.inkscape.org/) -->

<svg
   version="1.1"
   id="svg2"
   width="377.94666"
   height="377.94666"
   viewBox="0 0 377.94666 377.94666"
   sodipodi:docname="logo.eps"
   xmlns:inkscape="http://www.inkscape.org/namespaces/inkscape"
   xmlns:sodipodi="http://sodipodi.sourceforge.net/DTD/sodipodi-0.dtd"
   xmlns="http://www.w3.org/2000/svg"
   xmlns:svg="http://www.w3.org/2000/svg">
  <defs
     id="defs6" />
  <sodipodi:namedview
     id="namedview4"
     pagecolor="#ffffff"
     bordercolor="#000000"
     borderopacity="0.25"
     inkscape:showpageshadow="2"
     inkscape:pageopacity="0.0"
     inkscape:pagecheckerboard="0"
     inkscape:deskcolor="#d1d1d1" />
  <g
     id="g8"
     inkscape:groupmode="layer"
     inkscape:label="ink_ext_XXXXXX"
     transform="matrix(1.3333333,0,0,-1.3333333,0,377.94667)">
    <g
       id="g10"
       transform="scale(0.1)">
      <path
         d="m 352.914,1710.69 c 5.344,0 9.785,-1.78 13.352,-5.56 3.769,-3.55 5.547,-8.01 5.547,-13.34 0,-5.12 -1.778,-9.56 -5.547,-13.35 -3.567,-3.55 -8.008,-5.56 -13.352,-5.56 h -70.469 v -262.35 c 0,-5.32 -1.785,-9.79 -5.34,-13.33 -3.781,-3.79 -8.234,-5.56 -13.332,-5.56 -5.125,0 -9.57,1.77 -13.347,5.56 -3.555,3.54 -5.567,8.01 -5.567,13.33 v 262.35 h -70.468 c -5.118,0 -9.563,2.01 -13.125,5.56 -3.77,3.79 -5.547,8.23 -5.547,13.35 0,5.33 1.777,9.79 5.547,13.34 3.562,3.78 8.007,5.56 13.125,5.56 h 178.523"
         style="fill:#262f68;fill-opacity:1;fill-rule:nonzero;stroke:none"
         id="path12" />
      <path
         d="m 403.746,1513.7 c -9.113,0 -17.117,-3.11 -23.566,-9.56 -6.453,-6.22 -9.785,-14.01 -9.785,-22.9 v -19.57 c 0,-8.89 3.332,-16.68 9.785,-22.9 6.449,-6.44 14.453,-9.56 23.566,-9.56 9.121,0 17.117,3.12 23.574,9.56 6.453,6.22 9.785,14.01 9.785,22.9 v 52.03 z m 0,-122.06 c -19.562,0 -36.238,6.9 -50.242,20.45 -13.789,13.79 -20.676,30.25 -20.676,49.58 v 19.57 c 0,19.35 6.887,35.79 20.676,49.58 14.004,13.56 30.68,20.45 50.242,20.45 h 33.359 v 24.01 c 0,9.12 -3.332,16.68 -9.785,23.12 -6.457,6.24 -14.453,9.35 -23.574,9.35 h -9.551 c -5.117,0 -9.57,2 -13.351,5.56 -3.555,3.77 -5.555,8.23 -5.555,13.34 0,5.11 2,9.56 5.555,13.35 3.781,3.55 8.234,5.32 13.351,5.32 h 9.551 c 19.57,0 36.25,-6.66 50.254,-20.45 13.777,-13.79 20.676,-30.23 20.676,-49.59 v -113.61 c 0,-19.33 -6.899,-35.79 -20.676,-49.58 -14.004,-13.55 -30.684,-20.45 -50.254,-20.45"
         style="fill:#262f68;fill-opacity:1;fill-rule:nonzero;stroke:none"
         id="path14" />
      <path
         d="m 625.34,1391.64 c -5.11,0 -9.555,1.77 -13.117,5.56 -3.77,3.54 -5.555,8.01 -5.555,13.33 v 164.75 c 0,9.12 -3.332,16.68 -9.785,23.12 -6.449,6.24 -14.457,9.35 -23.567,9.35 -9.347,0 -17.121,-3.11 -23.574,-9.35 -6.66,-6.44 -9.785,-14 -9.785,-23.12 v -164.75 c 0,-5.32 -1.992,-9.79 -5.535,-13.33 -3.789,-3.79 -8.02,-5.56 -13.352,-5.56 -5.105,0 -9.57,1.77 -13.34,5.56 -3.566,3.54 -5.343,8.01 -5.343,13.33 v 164.75 c 0,19.36 6.894,35.8 20.683,49.59 13.996,13.79 30.676,20.45 50.246,20.45 19.571,0 36.239,-6.66 50.028,-20.45 14.004,-13.79 20.898,-30.23 20.898,-49.59 v -164.75 c 0,-5.32 -1.765,-9.79 -5.554,-13.33 -3.567,-3.79 -8.008,-5.56 -13.348,-5.56"
         style="fill:#262f68;fill-opacity:1;fill-rule:nonzero;stroke:none"
         id="path16" />
      <path
         d="m 765.777,1423.66 c 3.563,-3.56 5.567,-8.01 5.567,-13.13 0,-5.32 -2.004,-9.79 -5.567,-13.33 -3.781,-3.79 -8.007,-5.56 -13.332,-5.56 h -9.566 c -19.574,0 -36.25,6.9 -50.024,20.45 -14.011,13.79 -20.906,30.25 -20.906,49.58 v 229.67 c 0,5.12 1.778,9.56 5.567,13.35 3.543,3.55 8.007,5.56 13.328,5.56 5.121,0 9.574,-2.01 13.136,-5.56 3.77,-3.79 5.536,-8.23 5.536,-13.35 v -45.57 h 36.25 c 5.129,0 9.574,-2 13.117,-5.55 3.789,-3.79 5.566,-8.02 5.566,-13.35 0,-5.11 -1.777,-9.55 -5.566,-13.34 -3.543,-3.56 -7.988,-5.34 -13.117,-5.34 h -36.25 v -146.52 c 0,-8.89 3.351,-16.44 9.785,-22.9 6.457,-6.44 14.472,-9.56 23.578,-9.56 h 9.566 c 5.325,0 9.551,-1.78 13.332,-5.55"
         style="fill:#262f68;fill-opacity:1;fill-rule:nonzero;stroke:none"
         id="path18" />
      <path
         d="m 863.551,1607.75 c -9.113,0 -17.121,-3.11 -23.574,-9.78 -6.446,-6.46 -9.786,-14.23 -9.786,-23.58 v -111.82 c 0,-9.13 3.34,-17.12 9.786,-23.58 6.453,-6.44 14.461,-9.78 23.574,-9.78 9.121,0 17.121,3.34 23.574,9.78 6.434,6.46 9.785,14.45 9.785,23.58 v 111.82 c 0,9.35 -3.351,17.12 -9.785,23.58 -6.453,6.67 -14.453,9.78 -23.574,9.78 z m 0,-216.11 c -19.571,0 -36.25,6.9 -50.246,20.9 -13.789,13.78 -20.684,30.45 -20.684,50.03 v 111.82 c 0,19.57 6.895,36.25 20.684,50.26 13.996,13.77 30.675,20.67 50.246,20.67 19.57,0 36.25,-6.9 50.246,-20.67 13.789,-14.01 20.68,-30.69 20.68,-50.26 v -111.82 c 0,-19.58 -6.891,-36.25 -20.68,-50.03 -13.996,-14 -30.676,-20.9 -50.246,-20.9"
         style="fill:#262f68;fill-opacity:1;fill-rule:nonzero;stroke:none"
         id="path20" />
      <path
         d="m 1198.03,1391.64 c -5.09,0 -9.55,1.77 -13.11,5.56 -3.78,3.54 -5.56,8.01 -5.56,13.33 v 164.75 c 0,9.12 -3.33,16.68 -9.78,23.12 -6.44,6.24 -14.46,9.35 -23.56,9.35 -9.34,0 -17.12,-3.11 -23.57,-9.35 -6.68,-6.44 -9.79,-14 -9.79,-23.12 v -164.75 c 0,-5.32 -2,-9.79 -5.56,-13.33 -3.77,-3.79 -7.99,-5.56 -13.33,-5.56 -5.12,0 -9.58,1.77 -13.34,5.56 -3.57,3.54 -5.34,8.01 -5.34,13.33 v 164.75 c 0,19.36 6.9,35.8 20.67,49.59 14.01,13.79 30.69,20.45 50.26,20.45 19.55,0 36.23,-6.66 50.02,-20.45 14.01,-13.79 20.91,-30.23 20.91,-49.59 v -164.75 c 0,-5.32 -1.8,-9.79 -5.57,-13.33 -3.56,-3.79 -8.01,-5.56 -13.35,-5.56"
         style="fill:#262f68;fill-opacity:1;fill-rule:nonzero;stroke:none"
         id="path22" />
      <path
         d="m 1315.58,1513.7 c -9.13,0 -17.12,-3.11 -23.57,-9.56 -6.45,-6.22 -9.79,-14.01 -9.79,-22.9 v -19.57 c 0,-8.89 3.34,-16.68 9.79,-22.9 6.45,-6.44 14.44,-9.56 23.57,-9.56 9.1,0 17.12,3.12 23.56,9.56 6.45,6.22 9.78,14.01 9.78,22.9 v 52.03 z m 0,-122.06 c -19.57,0 -36.25,6.9 -50.26,20.45 -13.77,13.79 -20.67,30.25 -20.67,49.58 v 19.57 c 0,19.35 6.9,35.79 20.67,49.58 14.01,13.56 30.69,20.45 50.26,20.45 h 33.34 v 24.01 c 0,9.12 -3.33,16.68 -9.78,23.12 -6.44,6.24 -14.46,9.35 -23.56,9.35 h -9.57 c -5.12,0 -9.56,2 -13.33,5.56 -3.56,3.77 -5.57,8.23 -5.57,13.34 0,5.11 2.01,9.56 5.57,13.35 3.77,3.55 8.21,5.32 13.33,5.32 h 9.57 c 19.55,0 36.23,-6.66 50.25,-20.45 13.78,-13.79 20.68,-30.23 20.68,-49.59 v -113.61 c 0,-19.33 -6.9,-35.79 -20.68,-49.58 -14.02,-13.55 -30.7,-20.45 -50.25,-20.45"
         style="fill:#262f68;fill-opacity:1;fill-rule:nonzero;stroke:none"
         id="path24" />
      <path
         d="m 247.516,884.879 h -91.797 v 403.671 c 0,7.18 2.383,12.86 7.16,17.93 5.086,4.79 11.062,7.48 17.945,7.48 6.867,0 12.844,-2.69 17.942,-7.48 4.793,-5.07 7.175,-10.75 7.175,-17.93 V 935.41 h 41.575 c 14.043,0 25.703,4.801 35.566,14.949 9.863,9.871 14.949,21.852 14.949,35.891 0,7.18 2.395,13.172 7.481,17.93 4.777,5.1 10.754,7.48 17.636,7.48 7.18,0 13.157,-2.38 17.93,-7.48 5.09,-4.758 7.481,-10.75 7.481,-17.93 0,-27.809 -9.864,-51.73 -29.59,-71.449 -19.727,-20.039 -43.66,-29.922 -71.453,-29.922"
         style="fill:#262f68;fill-opacity:1;fill-rule:nonzero;stroke:none"
         id="path26" />
      <path
         d="m 429.184,1219.18 c 5.089,-5.09 7.472,-11.06 7.472,-17.95 V 910.289 c 0,-7.148 -2.383,-13.148 -7.472,-17.93 -4.774,-5.078 -10.75,-7.48 -17.938,-7.48 -6.887,0 -12.863,2.402 -17.949,7.48 -4.777,4.782 -7.16,10.782 -7.16,17.93 v 290.941 c 0,6.89 2.383,12.86 7.16,17.95 5.086,4.78 11.062,7.48 17.949,7.48 7.188,0 13.164,-2.7 17.938,-7.48 z m 43.656,110.94 c 0.906,-6.89 -0.891,-12.86 -5.09,-18.85 l -36.477,-47.25 c -5.683,-6.57 -12.253,-9.86 -20.027,-9.86 -5.383,0 -10.48,1.8 -15.242,5.39 -5.688,4.47 -8.988,10.16 -9.867,16.75 -0.907,6.56 0.879,12.84 5.07,18.82 l 36.473,47.24 c 4.504,5.4 10.175,8.69 16.75,9.58 6.883,0.9 12.859,-0.89 18.836,-5.09 5.39,-4.49 8.683,-10.17 9.574,-16.73"
         style="fill:#262f68;fill-opacity:1;fill-rule:nonzero;stroke:none"
         id="path28" />
      <path
         d="m 677.008,884.879 c -6.895,0 -12.871,2.402 -17.637,7.48 -5.098,4.782 -7.48,10.782 -7.48,17.93 v 221.581 c 0,12.24 -4.485,22.43 -13.164,31.09 -8.68,8.38 -19.426,12.57 -31.7,12.57 -12.55,0 -23.027,-4.19 -31.679,-12.57 -8.985,-8.66 -13.164,-18.85 -13.164,-31.09 V 910.289 c 0,-7.148 -2.688,-13.148 -7.481,-17.93 -5.09,-5.078 -10.773,-7.48 -17.93,-7.48 -6.886,0 -12.863,2.402 -17.949,7.48 -4.773,4.782 -7.16,10.782 -7.16,17.93 v 221.581 c 0,26.02 9.25,48.13 27.797,66.68 18.836,18.54 41.266,27.5 67.566,27.5 26.317,0 48.75,-8.96 67.293,-27.5 18.821,-18.55 28.086,-40.66 28.086,-66.68 V 910.289 c 0,-7.148 -2.383,-13.148 -7.468,-17.93 -4.778,-5.078 -10.754,-7.48 -17.93,-7.48"
         style="fill:#262f68;fill-opacity:1;fill-rule:nonzero;stroke:none"
         id="path30" />
      <path
         d="m 866.762,946.781 c 8.976,8.969 13.156,19.449 13.156,31.989 v 150.71 c 0,12.25 -4.18,23.02 -13.156,31.68 -8.68,8.69 -19.141,13.16 -31.707,13.16 -12.246,0 -22.707,-4.47 -31.68,-13.16 -8.684,-8.66 -13.156,-19.43 -13.156,-31.68 V 978.77 c 0,-12.54 4.472,-23.02 13.156,-31.989 8.973,-8.66 19.434,-13.172 31.68,-13.172 12.566,0 23.027,4.512 31.707,13.172 z m 56.523,272.109 c 4.766,-5.09 7.453,-11.07 7.453,-17.95 V 1129.48 978.77 825.391 c 0,-26.02 -9.57,-48.141 -28.086,-66.692 -18.547,-18.219 -41.281,-27.5 -67.597,-27.5 -14.637,0 -29.297,2.981 -43.633,9.281 -14.367,5.981 -26.027,14.93 -35.293,26.301 -9.277,11.36 -14.055,24.809 -14.055,40.36 0,7.179 2.688,12.859 7.481,17.949 5.07,4.769 11.066,7.48 17.929,7.48 6.887,0 12.864,-2.711 17.942,-7.48 4.793,-5.09 7.469,-10.77 7.469,-17.949 0,-6.27 4.21,-12.262 13.164,-17.34 8.683,-5.379 18.546,-8.071 28.996,-8.071 12.566,0 23.027,4.18 31.707,12.86 8.976,8.66 13.156,18.84 13.156,30.801 v 69.058 c -13.449,-7.469 -28.41,-11.347 -44.863,-11.347 -26.289,0 -48.719,9.558 -67.266,28.097 -18.848,18.531 -28.098,41.262 -28.098,67.571 v 150.71 c 0,26.32 9.25,48.72 28.098,67.57 18.547,18.55 40.977,27.81 67.266,27.81 17.343,0 33.203,-4.19 47.547,-12.86 5.382,9.57 12.863,14.05 22.726,14.05 6.887,0 12.86,-2.39 17.957,-7.16"
         style="fill:#262f68;fill-opacity:1;fill-rule:nonzero;stroke:none"
         id="path32" />
      <path
         d="m 1063.4,884.879 c -26.31,0 -49.04,9.281 -67.564,27.512 -18.543,18.55 -28.117,40.679 -28.117,66.679 v 221.87 c 0,6.88 2.687,12.86 7.48,17.95 5.09,4.77 11.067,7.16 17.93,7.16 6.891,0 12.861,-2.39 17.961,-7.16 4.77,-5.09 7.47,-11.07 7.47,-17.95 V 979.07 c 0,-11.949 4.19,-22.429 13.16,-30.8 8.67,-8.661 19.14,-12.86 31.68,-12.86 12.26,0 22.73,4.199 31.71,12.86 8.66,8.371 13.16,18.851 13.16,30.8 v 221.87 c 0,6.88 2.39,12.86 7.16,17.95 5.09,4.77 11.07,7.16 17.95,7.16 7.18,0 12.87,-2.39 17.93,-7.16 4.8,-5.09 7.48,-11.07 7.48,-17.95 V 979.07 c 0,-26 -9.27,-48.129 -28.11,-66.679 -18.53,-18.231 -40.96,-27.512 -67.28,-27.512"
         style="fill:#262f68;fill-opacity:1;fill-rule:nonzero;stroke:none"
         id="path34" />
      <path
         d="m 1291.14,1049.04 c -12.27,0 -23.02,-4.18 -31.7,-12.86 -8.66,-8.36 -13.16,-18.83 -13.16,-30.79 v -26.32 c 0,-11.949 4.5,-22.429 13.16,-30.8 8.68,-8.661 19.43,-12.86 31.7,-12.86 12.25,0 23.03,4.199 31.69,12.86 8.68,8.371 13.15,18.851 13.15,30.8 v 69.97 z m 0,-164.161 c -26.32,0 -48.75,9.281 -67.59,27.512 -18.52,18.55 -27.79,40.679 -27.79,66.679 v 26.32 c 0,26.02 9.27,48.14 27.79,66.68 18.84,18.22 41.27,27.5 67.59,27.5 h 44.84 v 32.3 c 0,12.24 -4.47,22.43 -13.15,31.09 -8.66,8.38 -19.44,12.57 -31.69,12.57 h -12.86 c -6.89,0 -12.86,2.67 -17.93,7.47 -4.8,5.07 -7.48,11.07 -7.48,17.94 0,6.88 2.68,12.86 7.48,17.95 5.07,4.77 11.04,7.16 17.93,7.16 h 12.86 c 26.3,0 48.73,-8.96 67.57,-27.5 18.54,-18.55 27.8,-40.66 27.8,-66.68 v -152.8 c 0,-26 -9.26,-48.129 -27.8,-66.679 -18.84,-18.231 -41.27,-27.512 -67.57,-27.512"
         style="fill:#262f68;fill-opacity:1;fill-rule:nonzero;stroke:none"
         id="path36" />
      <path
         d="m 2066.7,2103.45 c -126.57,0 -244.16,-38.42 -341.76,-104.22 5.02,-3.4 9.83,-7.14 14.33,-11.48 8.5,-8.17 17.87,-15.45 26.89,-23.09 0.95,-0.81 2.15,-1.37 3.43,-2.17 0,0.9 0,1.45 0,2.85 18.25,-15.52 34.34,-31.73 41.46,-54.99 -0.28,3.42 -0.58,6.83 -0.86,10.25 0.5,0.03 1.01,0.06 1.5,0.1 0.57,-10.95 1.41,-21.88 1.65,-32.83 0.3,-13.42 2.1,-26.39 8.4,-38.48 3.82,-7.31 7.34,-14.8 11.11,-22.15 6.58,-12.86 12.94,-25.81 16.41,-39.94 5.72,-23.18 11.3,-46.39 13.64,-70.24 1.4,-14.42 -0.06,-28.47 -3.93,-42.47 -1.72,-6.2 -2,-12.93 -2.09,-19.43 -0.06,-5.26 2.31,-7.48 7.4,-8.77 8.6,-2.17 17.16,-1.89 25.64,0.76 0.87,0.26 1.74,0.55 2.61,0.81 0.08,0.02 0.23,-0.11 0.8,-0.39 -8.19,-8.21 -18.63,-10.08 -30.36,-11.31 7.05,-10.97 13.09,-21.6 20.32,-31.35 9.37,-12.64 19.58,-24.68 29.65,-36.81 6.14,-7.4 12.08,-14.83 14.87,-24.24 0,-2.1 0,-4.21 0,-6.31 -4.54,-13.38 -12.96,-23.26 -26.24,-28.52 -8.02,-3.16 -12.9,-17.3 -3.64,-24.57 2.16,-1.7 4.25,-3.51 6.42,-5.23 5.14,-4.09 7.62,-9.62 8.37,-15.96 0.72,-6.1 -1.31,-11.46 -6.44,-14.74 -4.92,-3.15 -10.42,-5.41 -15.74,-7.92 -3.79,-1.79 -7.88,-3 -11.44,-5.13 -1.76,-1.05 -3.7,-3.69 -3.58,-5.46 0.13,-1.75 2.49,-3.88 4.39,-4.82 3.25,-1.62 6.93,-2.35 10.37,-3.63 2.94,-1.09 5.94,-2.15 8.65,-3.7 5.38,-3.08 7.11,-7.43 5.22,-13.36 -2.68,-8.33 -7.21,-14.98 -16.21,-17.85 -11.85,-3.77 -15.59,-9.64 -14.15,-22.15 0.82,-7.15 2.14,-14.26 3.65,-21.32 5.44,-25.44 -8.94,-41.8 -31.39,-47.01 -19.41,-4.5 -38.76,-3.5 -58.23,0.18 -17.12,3.24 -34.38,6 -51.68,7.97 -7.29,0.83 -14.97,-0.29 -22.28,-1.59 -10.23,-1.84 -17.58,-8.39 -23.35,-16.82 -8.83,-12.92 -13.59,-27.52 -16.61,-42.62 -3.69,-18.51 -5.89,-37.35 -10.03,-55.76 -4.45,-19.79 -10.73,-39.18 -15.59,-58.9 -3.51,-14.22 -6.64,-28.62 -8.79,-43.1 -2.5,-16.89 1.98,-32.83 11.1,-46.96 8.31,-12.88 18.02,-24.85 27.04,-37.26 17.38,-23.91 34.78,-47.789 52,-71.789 11.87,-16.519 23.64,-33.133 34.14,-50.531 h 302.93 c 338.13,0 612.23,274.1 612.23,612.22 0,338.12 -274.1,612.23 -612.23,612.23"
         style="fill:#94dcef;fill-opacity:1;fill-rule:nonzero;stroke:none"
         id="path38" />
      <path
         d="m 1677.63,1001.32 c -9.02,12.41 -18.73,24.38 -27.04,37.26 -9.12,14.13 -13.6,30.07 -11.1,46.96 2.15,14.48 5.28,28.88 8.79,43.1 4.86,19.72 11.14,39.11 15.59,58.9 4.14,18.41 6.34,37.25 10.03,55.76 3.02,15.1 7.78,29.7 16.61,42.62 5.77,8.43 13.12,14.98 23.35,16.82 7.31,1.3 14.99,2.42 22.28,1.59 17.3,-1.97 34.56,-4.73 51.68,-7.97 19.47,-3.68 38.82,-4.68 58.23,-0.18 22.45,5.21 36.83,21.57 31.39,47.01 -1.51,7.06 -2.83,14.17 -3.65,21.32 -1.44,12.51 2.3,18.38 14.15,22.15 9,2.87 13.53,9.52 16.21,17.85 1.89,5.93 0.16,10.28 -5.22,13.36 -2.71,1.55 -5.71,2.61 -8.65,3.7 -3.44,1.28 -7.12,2.01 -10.37,3.63 -1.9,0.94 -4.26,3.07 -4.39,4.82 -0.12,1.77 1.82,4.41 3.58,5.46 3.56,2.13 7.65,3.34 11.44,5.13 5.32,2.51 10.82,4.77 15.74,7.92 5.13,3.28 7.16,8.64 6.44,14.74 -0.75,6.34 -3.23,11.87 -8.37,15.96 -2.17,1.72 -4.26,3.53 -6.42,5.23 -9.26,7.27 -4.38,21.41 3.64,24.57 13.28,5.26 21.7,15.14 26.24,28.52 0,2.1 0,4.21 0,6.31 -2.79,9.41 -8.73,16.84 -14.87,24.24 -10.07,12.13 -20.28,24.17 -29.65,36.81 -7.23,9.75 -13.27,20.38 -20.32,31.35 11.73,1.23 22.17,3.1 30.36,11.31 -0.57,0.28 -0.72,0.41 -0.8,0.39 -0.87,-0.26 -1.74,-0.55 -2.61,-0.81 -8.48,-2.65 -17.04,-2.93 -25.64,-0.76 -5.09,1.29 -7.46,3.51 -7.4,8.77 0.09,6.5 0.37,13.23 2.09,19.43 3.87,14 5.33,28.05 3.93,42.47 -2.34,23.85 -7.92,47.06 -13.64,70.24 -3.47,14.13 -9.83,27.08 -16.41,39.94 -3.77,7.35 -7.29,14.84 -11.11,22.15 -6.3,12.09 -8.1,25.06 -8.4,38.48 -0.24,10.95 -1.08,21.88 -1.65,32.83 -0.49,-0.04 -1,-0.07 -1.5,-0.1 0.28,-3.42 0.58,-6.83 0.86,-10.25 -7.12,23.26 -23.21,39.47 -41.46,54.99 0,-1.4 0,-1.95 0,-2.85 -1.28,0.8 -2.48,1.36 -3.43,2.17 -9.02,7.64 -18.39,14.92 -26.89,23.09 -4.5,4.34 -9.31,8.08 -14.33,11.48 -163.16,-109.98 -270.46,-296.46 -270.46,-508.01 V 879 h 309.29 c -10.5,17.398 -22.27,34.012 -34.14,50.531 -17.22,24 -34.62,47.879 -52,71.789"
         style="fill:#36ab9c;fill-opacity:1;fill-rule:nonzero;stroke:none"
         id="path40" />
    </g>
  </g>
</svg>
